<?xml version="1.0" standalone="no"?>
<!DOCTYPE svg PUBLIC "-//W3C//DTD SVG 20010904//EN"
 "http://www.w3.org/TR/2001/REC-SVG-20010904/DTD/svg10.dtd">
<svg version="1.0" xmlns="http://www.w3.org/2000/svg"
 width="1088.000000pt" height="1088.000000pt" viewBox="0 0 1088.000000 1088.000000"
 preserveAspectRatio="xMidYMid meet">
<metadata>
Created by potrace 1.11, written by Peter Selinger 2001-2013
</metadata>
<g transform="translate(0.000000,1088.000000) scale(0.100000,-0.100000)"
fill="#000000" stroke="none">
<path d="M5150 10299 c-1489 -105 -2760 -976 -3246 -2227 -117 -299 -194 -683
-194 -959 l0 -103 -67 0 -66 0 6 153 c23 534 208 1100 512 1561 l19 29 -139
-6 c-518 -24 -965 -226 -1321 -599 -288 -302 -467 -687 -514 -1103 -8 -72 -10
-734 -7 -2335 l3 -2235 21 -110 c188 -959 915 -1647 1876 -1775 109 -14 6705
-14 6814 0 418 56 799 219 1115 477 110 91 284 275 369 393 206 283 327 571
396 940 16 89 18 242 21 2305 2 1557 0 2242 -8 2320 -85 853 -735 1551 -1580
1696 -63 11 -178 22 -255 26 l-139 6 15 -24 c290 -450 463 -946 509 -1459 5
-63 10 -148 10 -187 l0 -73 -65 0 -65 0 0 89 c0 242 -62 587 -153 856 -368
1080 -1337 1923 -2562 2229 -418 105 -878 145 -1305 115z m885 -2705 c447 -55
848 -223 1195 -500 106 -85 334 -312 379 -378 118 -171 87 -358 -85 -515 -124
-114 -254 -145 -406 -98 -103 32 -170 78 -309 211 -309 296 -665 436 -1109
436 -460 0 -841 -151 -1146 -455 -274 -273 -433 -625 -484 -1074 -18 -155 -8
-506 19 -647 98 -518 375 -924 803 -1179 171 -102 365 -168 590 -201 144 -21
504 -15 643 10 223 41 450 136 610 255 192 143 266 179 390 188 129 10 232
-35 339 -147 143 -149 165 -346 57 -490 -77 -102 -312 -283 -516 -398 -244
-136 -552 -234 -880 -279 -119 -17 -240 -18 -1486 -18 l-1356 0 -49 30 c-27
17 -62 51 -79 75 l-30 45 -3 1335 c-2 932 0 1373 8 1460 58 639 315 1206 740
1630 379 379 857 615 1409 695 240 35 516 38 756 9z"/>
</g>
</svg>
